<?xml version="1.0" encoding="utf-8"?>
<!-- Generator: Adobe Illustrator 24.0.1, SVG Export Plug-In . SVG Version: 6.00 Build 0)  -->
<svg version="1.1" id="Layer_1" xmlns="http://www.w3.org/2000/svg" xmlns:xlink="http://www.w3.org/1999/xlink" x="0px" y="0px"
	 viewBox="0 0 407.2 117.63" style="enable-background:new 0 0 407.2 117.63;" xml:space="preserve">
<style type="text/css">
	.st0{fill:#4198D4;}
	.st1{fill:#FFFFFF;}
</style>
<g>
	<path class="st0" d="M365.63,80.71c-0.02-0.15-0.02-0.28-0.09-0.41c-0.16-2-0.68-3.95-0.79-5.98c-0.07-1.11,0.33-2.1,0.88-3.12
		c0.82-1.66,1.64-3.29,2.4-4.99c0.33-0.71,0.58-1.51,1.07-2.17c0.45-0.54,0.73-1.22,1.1-1.86c0.31-0.44,0.55-0.95,0.98-1.34
		c0.41-0.33,0.9-0.57,1.21-0.93c0.34-0.25,0.59-0.57,0.92-0.8c1.33-0.87,2.64-1.64,4.13-2.23c1.97-0.67,3.92-0.48,5.93-0.36
		c2.56,0.16,5.09-0.06,7.61,0c2.18,0.07,4.24,0.48,5.95,1.86c3.1,2.46,5.13,6,5.79,9.8c0.32,2,1.05,3.81,2.04,5.65
		c0.45,0.71,1.15,1.5,1.46,2.34c0.1,0.29,0.07,0.67,0.17,0.95c0.13,0.39,0.31,0.76,0.42,1.12c0.2,0.57,0.34,1.19,0.36,1.76
		c0.09,1.08-0.03,2.4-0.37,3.48c-0.27,0.79-0.69,1.5-0.97,2.3c-0.15,0.51-0.41,1.02-0.63,1.5c-0.15,0.38-0.52,0.52-0.76,0.84
		c-0.79,0.89-1.46,1.99-2.21,2.91c-0.63,0.71-1.44,1.15-2.15,1.8c-0.87,0.7-1.78,1.33-2.83,1.92c-1.11,0.65-2.32,1.18-3.57,1.66
		c-3.85,1.57-8.24,1.79-12.42,1.76c-2.59-0.04-4.96-0.89-7.21-2.04c-0.84-0.39-1.78-0.87-2.69-1.28c-0.71-0.26-1.59-0.58-2.11-1.12
		c-0.26-0.28-0.44-0.74-0.62-1.14c-0.21-0.38-0.28-0.86-0.49-1.24c-0.26-0.6-0.63-1.09-0.81-1.75c-0.15-0.74-0.12-1.56-0.19-2.34
		c-0.03-1.15-0.38-2.33-0.79-3.42C365.98,82.81,365.78,81.83,365.63,80.71"/>
	<g>
		<path class="st1" d="M405.66,79.05c-0.5-0.41-2.4-0.41-2.55-0.5c-0.28-0.41-0.94-0.58-1.59-0.76c-0.58-0.22-1.31-0.31-1.67-0.77
			c-0.38-0.31-0.39-0.92-0.8-1.3c-0.4-0.38-0.98-0.32-1.36-0.52c-0.74-0.44-1.34-1.09-1.98-1.66c-0.66-0.55-1.15-0.77-1.29-0.84
			c-1.02-0.61-1.77-0.96-2.4-1.14c-0.6-0.22-1.84-0.22-3.01-1.38c-0.23-0.15-0.09-0.52-0.31-0.99c-0.19-0.39-0.9-0.39-1.27-0.61
			c-0.28-0.09-0.31-0.66-0.63-1.03c-0.31-0.44-0.86-0.39-1.12-0.04c-0.12,0.16-0.23,0.25-0.29,0.41h-0.05
			c-0.55,0.32-0.89,0.52-1.06,0.67c-0.42,0.1-0.99,0.45-1.38,0.96c-0.37,0.5-0.66,0.92-1.28,1.14c-0.12,0.07-0.25,0.12-0.42,0.19
			c0.1-0.01,0.21-0.07,0.25-0.07c-0.04-0.82-0.25-1.17-0.35-2.98c-0.07-0.55-0.1-1.12-0.18-1.73c0.5,0,0.75-0.04,0.88-0.07
			c0.04,0,0.31-0.2,0.5-0.06c0.45-0.03,1.02-0.14,1.77-0.23c0.72-0.13,1.22-0.19,1.49-0.19c0.49-0.03,1.59,0,1.71,0
			c0.12,0,0.16,0.04,0.2,0.16c0.01,0.03,0.42,0.03,0.66,0c0.15-0.12,0.27-0.16,0.39-0.16c0.11,0,0.23,0.04,0.29,0.16
			c0.1,0.03,0.47,0.03,0.54,0c0.04-0.12,0.16-0.16,0.47-0.16c0.12-0.03,0.34-0.03,0.6,0c-0.07,0.28-0.09,0.51-0.18,0.82
			c-0.17,0.44-0.09,1.16,0.18,2.07c0.06,0.22,0.98,0.79,1.42-0.52c0.45-1.27,0.74-1.94,0.79-2.08h0.09c0.23,0.1,0.5,0,0.89-0.23
			c0.33-0.15,0.69-0.21,1.04-0.12c0.33-0.09,0.65-0.03,0.94,0.04c0.26,0.07,0.58,0,0.88,0c0.94-0.07,1.88-0.41,2.15-0.76
			c0-0.1,0-0.13,0.07-0.18c0-0.09-0.21-0.12-0.6-0.22c-0.04-0.03-0.15-0.06-0.26-0.03c-0.14,0.03-0.17-0.06-0.21-0.25
			c-0.4-0.13-0.69-0.29-0.99-0.5c-0.23-0.15-0.63-0.26-1.2-0.2c-0.02,0.16-0.2,0.26-0.54,0.23c-0.36-0.03-0.62,0-0.95,0.03
			c-0.1,0.28-0.52,0-0.57,0c-0.01,0.07-0.12,0.1-0.17,0.1c0.01-0.16,0.05-0.28,0.08-0.48c0.09-0.42,0.18-1.59,0.08-2.33
			c-0.14-0.74-0.33-0.89-0.4-0.89c-0.42-0.1-0.82,0.36-0.82,0.36s-0.22,0.16-0.42,0.2c-0.17,0.03-0.33,0.71-0.33,0.71
			c-0.19,0.67-0.42,1.46-0.59,2.26c-0.55,0-1.15-0.04-1.9-0.07c-1.72-0.04-2.61-0.2-2.77-0.25c-0.81-0.1-2.74-0.03-2.74-0.03
			c-0.9,0.03-1.75,0-2.48-0.07c-0.14,0-0.27-0.07-0.41-0.07c-0.14-0.49-0.2-1.09-0.29-1.7c-0.12-0.6-0.95-0.71-1.03-1.49l-0.68-0.23
			l-1.39-0.07c0,0.1-0.4,0.16-0.4,0.28c0.09,2.04,0.4,1.82,0.41,2.04c0.07,0.28,0.07,0.68,0.07,0.98c-0.4,0-1.56,0.06-1.99-0.06
			c-0.1,0-0.71,0.2-0.77,0.06c-0.1-0.06-0.17-0.1-0.21-0.15h-0.97c-0.11,0-0.27,0.04-0.5,0.09c-0.23,0.01-0.41,0.15-0.58,0.33
			c0.06,0.28,0,0.35,0,0.35c-0.15,0-0.22,0-0.25,0.1c-0.22,0.29-0.38,0.44-0.54,0.68c-0.09,0.19-0.26,0.35-0.49,0.41
			c-0.04,0.19-0.09,0.29-0.09,0.39c0,0.12,0.09,0.16,0.35,0.16c0.11,0.06,0.23,0.09,0.27,0.2c0.07,0.07,0.19,0.13,0.4,0.23
			c0.25-0.16,0.2,0.23,0.35,0.22c0.78,0.1,1.64,0.1,2.57,0.04c0.88-0.04,1.69-0.03,2.26,0.06c0.18,0.03,0.36,0.07,0.56,0.07
			c0,0.12,0,0.15,0.04,0.29c0.2,1.48,0.32,2.31,0.32,2.47c0,0.41,0.99,2.26,0.99,2.26s-0.04,0.07,0.19,0.17c0.21,0.07,0.6,0,0.6,0
			s0.89-0.1,1.49-0.41c-0.29,0.16-0.6,0.31-0.91,0.48c-0.5,0.31-0.75,0.64-1.06,0.99c-0.66,0.52-1.23,1.15-2.02,1.63
			c-0.72,0.41-1.33,0.89-1.41,1.09c-0.93,0.71-1.29,1.08-1.64,1.54c-0.21,0.26-0.67,0.51-1.13,0.98c-0.42,0.36-1.08,0.65-1.66,1.15
			c-0.2,0.15-0.84,0.35-1.32,0.54c-0.45,0.16-1.38,0.64-1.65,0.96c-0.05,0.25-0.25,0.25,0,0.48c0.39,0.36,1.05,0.61,1.05,0.61
			c0.43,0.51,0.52,0.64,1.19,0.57c0.63-0.06,1.3-0.47,2.06-1.03c0.57-0.38,0.5-0.38,0.93-0.7c0.87-0.61,1.38-1.08,1.68-1.3
			c0.41-0.31,0.84-0.89,1.44-1.35c0.55-0.46,1.27-0.74,1.91-1.34c0.47-0.33,0.87-0.68,1.19-0.9c0.29-0.17,0.85-0.73,1.28-1.08
			c0.86-0.54,1.63-1.05,1.78-1.14c0.17-0.19,0.56-0.39,0.8-0.6c0.08-0.03,0.33-0.46,0.59-0.77c0.6-0.54,1.31-1.11,1.7-1.35
			c0.23,0.19,0.46,0.39,0.72,0.67c0.41,0.48,0.69,0.99,1.06,1.38c0.71,0.7,1.31,1.09,1.56,1.36c0.39,0.38,0.16,0.41,0.81,0.89
			c0.53,0.44,1.97,1.15,2.56,1.78c1.33,1.31,2.17,1.99,2.44,2.37c0.44,0.5,0.73,0.77,1.57,1.5c0.48,0.16,0.51,0.65,0.63,0.74
			c0.04,0.04,0.04,0,0-0.01c0.11,0.07,0.33,0.48,1.4,1.7c0.22,0.23,1.06,0.48,1.17,0.61c0.18,0.35,1.52,0,1.63,0
			c0,0-0.01-0.12,0.07-0.14c0.11-0.15,0.79-0.51,1.48-1.14c0.5-0.41,0.7-1.18,1.16-1.67C404.98,79.67,405.83,79.21,405.66,79.05"/>
		<path class="st1" d="M383.01,85.85c-0.03-0.04-0.06-0.25-0.03-0.46c0-0.25,0.03-0.6,0.03-1.02c0.1-0.51-0.06-0.55-0.47-0.23
			c-0.16,0.13-0.48,0.13-0.87,0.03c-0.39-0.12-0.66-0.06-0.94,0.1c-0.23,0.16-0.81,0.6-0.92,0.68c0.12,0.29,0.07,0.36-0.19,0.29
			c-0.25-0.1-0.69,0.15-0.84,0.42c-0.2,0.28-0.94,0.55-0.97,0.7c-0.08,0.13-0.62,0.44-1.22,0.98c-0.6,0.51-1.1,0.95-1.54,1.3
			c-0.42,0.29-0.5,0.63-0.82,0.76c-0.27,0.09-1.46,0.8-1.67,0.84c-0.36,0.35-1.25,1.33-1.25,1.33c0.32,0.39,0.43,0.63,0.43,0.83
			c-0.03,0.19,0.13,0.47,0.53,0.83c-0.1,0.15,0.03,0.29,0.46,0.44c0.46,0.15,0.71,0.1,0.74-0.12c0.26,0.2,0.56,0.17,0.9-0.07
			c0.31-0.25,0.62-0.39,1.02-0.44c0.2-0.01,0.38-0.03,0.59-0.03c0.19,0,0.81-0.29,0.92-0.48c0.11-0.14,0.22-0.26,0.33-0.26
			c0.1-0.09,0.59-0.54,0.69-0.65c0.18-0.23,0.37-0.35,0.52-0.31c0.13,0.01,0.35-0.06,0.6-0.26c0.1,0,0.14-0.15,0.14-0.26
			c0-0.19,0.11-0.22,0.27-0.29c0.11-0.03,0.57-0.2,0.49-0.35c-0.06-0.17,0.08-0.25,0.3-0.42c0.2-0.29,0.41-0.57,0.66-0.7
			c0.24-0.13,0.47-0.28,0.59-0.45c0.09-0.12,0.41-0.65,0.48-0.76c0.16-0.26,0.34-0.52,0.54-0.79c0.17-0.22,0.28-0.52,0.4-0.8
			C382.98,86.01,383.01,85.94,383.01,85.85"/>
		<path class="st1" d="M397.28,90.58c-0.03-0.13-0.03-0.26-0.03-0.39c0-0.13-0.02-0.28-0.09-0.41c-0.03-0.09-0.15-0.16-0.26-0.22
			c-0.14-0.07-0.21-0.13-0.23-0.17c-0.07-0.1-0.14-0.44-0.22-0.38c-0.08,0-0.16-0.06-0.21-0.09c-0.19-0.16-0.32-0.28-0.28-0.35
			c0.03-0.09-0.04-0.29-0.19-0.39l-0.04-0.06h-0.12c-0.16,0-0.21-0.06-0.23-0.19c-0.03-0.03-0.03-0.13-0.03-0.23
			c0,0-0.1-0.12-0.23-0.1c-0.12,0.06-0.22-0.01-0.31-0.19c-0.25-0.13-0.42-0.25-0.51-0.42c-0.07-0.13-0.22-0.28-0.36-0.35
			c-0.07-0.04-0.75-0.32-1.12-0.63c-0.4-0.32-0.68-0.44-0.93-0.44c-0.16,0.09-0.25,0.09-0.21-0.06c0-0.07-0.04-0.21-0.1-0.23
			c-0.19-0.1-0.37-0.26-0.6-0.39c-0.17-0.1-0.37-0.17-0.58-0.22c-0.12-0.06-0.21-0.06-0.26-0.06h-0.3c-0.21,0-0.47,0-0.8,0
			c-0.33-0.04-0.38,0.06-0.11,0.28c0.04,0.13,0.07,0.39,0.03,0.6c-0.11,0.29,0.3,0.87,0.49,0.83c0.18-0.03,0.25,0.04,0.25,0.26
			c0.15,0.12,0.37,0.07,0.59,0.16c0.22,0.12,0.6,0.67,0.69,0.74c0,0,0.11,0.1,0.33,0.17c0.13,0.1,0.27,0.28,0.33,0.47
			c0,0,0.04,0.16,0.15,0.16c0.1,0,0.15,0.16,0.1,0.32c0.04,0.03,0.12,0.04,0.21,0.09c0.11,0,0.61,0.74,1.02,1.19
			c0.37,0.35,0.73,0.67,0.98,0.96l1.14,1.34c0,0,0.38,0.84,1.45,0.79l0.13-0.03c0.2,0.03,0.37-0.09,0.6-0.36
			c0.12,0.07,0.24-0.03,0.33-0.32c0.09-0.26,0.04-0.8-0.15-1C397.46,91.03,397.36,90.8,397.28,90.58"/>
		<path class="st1" d="M387.82,83.14c0,0-0.34-0.29,0-0.44c0.16-0.04,0.52,0.15,0.58,0.1c0.01-0.12,0.57-0.12,0.57-0.15
			c0.39-0.19,2.27-0.13,3.06,0c0.72,0.12,1.28,0.03,1.72-0.19c0.15-0.15,0.29-0.23,0.36-0.35c0.06-0.18,0.19-0.23,0.27-0.29
			c0.33-0.15,0.33-0.44,0.15-0.51c-0.57-0.32-0.97-0.64-1.13-0.96c-0.12-0.26-1.92-0.41-1.98-0.26c-0.07,0.14-0.19,0.14-0.44-0.07
			c-0.06,0-0.22,0.07-0.58,0.12c-0.33,0.06-1.86,0.2-2.05-0.07c0,0,0.05-0.73,0-1.75c-0.02-0.95,0-0.57-0.31-1.51
			c-0.13-0.25-0.18-0.57-0.21-0.92c-0.01-0.35-0.47-0.76-1.36-1.27c-0.22-0.09-0.41-0.2-0.59-0.44c-0.15-0.16-0.31-0.21-0.47-0.21
			c-0.52,0-0.84,0.44-0.87,1.34c-0.07,0.92-0.07,1.49-0.07,1.54c0,0.58,0.07,0.63,0.21,1.46c0.13,0.8,0.21,0.32,0.21,0.32
			c0,0.36-0.08,0.57-0.31,0.73c-0.23,0.17-0.36,0.35-0.36,0.73c-0.34,0.2-0.84,0.33-1.38,0.38c-0.48,0.06-0.87,0.06-1.11,0.03
			c-0.15,0.09-0.3,0.06-0.45-0.07c-0.09-0.16-0.21-0.2-0.38-0.16c-0.31,0.09-0.58,0.1-0.79,0.07c-0.23-0.1-0.49-0.04-0.82,0.09
			c-0.16,0.07-0.39,0.04-0.66-0.09c-0.22-0.12-0.42-0.15-0.57-0.07c-0.05,0-0.39,0.1-1.03,0.44c-0.54,0.3-0.86,0.61-0.86,0.85
			c0.02,0.48,0.23,0.71,0.52,0.71c0.31,0.06,0.52,0.15,0.66,0.35c0.86,0.52,2.05,0.35,2.34,0.48c0.69,0.09,3.29,0.1,4.43,0.04
			c1.16-0.04,0.8,5.42,1.33,7.66c0.11,0.57-2.95-0.85-2.92-0.52c0.05,0.36,2.2,2.3,2.45,2.74c0.51,0.16,0.8,0.45,0.8,0.74
			c0,0.36,0.09,0.52,0.37,0.47c0.17-0.13,0.53-0.35,1.05-0.57c0.51-0.19,1.08-0.77,1.08-1c0.22-0.35,0.25-0.93,0.12-1.7
			C388.32,90.19,388.32,85.94,387.82,83.14"/>
	</g>
	<g>
		<path d="M267.24,88.53c-12.08,1.98-17.43,0-20.18-3.22c-3.5-4.12-2.92-11.37-6.8-13.93c-2.26-1.49-4.76-1.81-11.55,0.14
			c-0.39,0.1-0.75,1.08-0.56,1.41c2.72,5.33,2.75,10.42,1.2,12.3c-4.08,4.96-19.92,0.99-26.63,4.63c-3.06,1.66-4.22,3.07-1.62,9.06
			h66.17c0,0,1.76-0.31,1.82-1.21c0.07-0.89-0.06-7.25,0-8.08C269.17,88.87,267.85,88.43,267.24,88.53"/>
		<path d="M266.1,9.32c-0.04-1.08-1.6-1.08-1.6-1.08s-7.66-0.28-8.76-0.15c-1.12,0.15-1.47,1.31-1.47,1.31l-0.25,11.53
			c-4.96,5.28-19.14,6.58-27.92,5.84c-11.64-0.92-7.14-11.62-7.66-17.37c-0.04-0.41-0.67-1.16-0.67-1.16s-12.08,0-13.59,0
			c-1.51,0-2.24,1.16-2.06,2.01c0.2,0.63,1.4,34.33,1.79,47.85c1.31,3.51,4.75,7.02,9.29,7.77c18.2-0.13,38.1,1.76,54.12-2.66
			c0.52-0.12,1.25-0.58,1.41-1.86C268.84,60.05,266.17,10.44,266.1,9.32 M246.56,56.6c0,0-23.23-0.47-24.24-0.63
			c-1.04-0.13-1.39-1.92-1.39-1.92V38.93c0-0.9,1.15-1.83,1.69-1.82c7.37,0.48,24.87-3.27,28.72,1.47
			C253.61,41.29,250.85,56.84,246.56,56.6"/>
		<path d="M342.18,39.7h14.19c1.43,0,2.2,1.27,2.17,1.65c-2.44,14.3,0.77,40.22-7.78,52.44h-8.5c-0.69,0-1.49-1.67-1.49-1.67
			l-0.12-50.09C340.65,42.02,341.03,39.7,342.18,39.7"/>
		<path d="M329.81,82.3c-5.27-3.12-20.28-0.57-26.21-3.27c-2.71-1.24-4.09-6.55-2.8-10.98c2.32-6.83,19.06-5.98,28.18-5.85
			c0.54,0.01,1.52-0.79,1.58-1.78c0.09-0.99,0-35.08,0-35.08s-0.19-2.47-2.55-2.47h-43.29c0,0-1.21,0.49-1.3,0.65
			c-2.14,4.44-1.18,5.94,1.46,7.47c5.99,3.61,22.75,1.67,28,5.69c2.33,2.07,2.19,4.67,1.93,6.62c-1.11,7.82-20.38,7.61-29.45,10.38
			c-0.57,0.17-1.54,1.38-1.51,1.81c0.68,11.59-2.34,24.34,1.95,34.72c1.53,1.62,3.09,2.74,5.37,3.32
			c12.57-0.39,27.87,2.32,39.35-2.55C333.24,85.11,332.46,83.89,329.81,82.3"/>
	</g>
	<g>
		<path d="M105.71,55.87c-0.18,2.23-0.37,6.04-0.18,8.52c0.12,1.38-0.76,2.02-1.46,1.83c-8.15-2.04-12.61-0.66-15.2,2.4
			c-6.22,7.42-0.12,24.83-7.88,30.09c-2.59,1.74-4.87,2.18-10.79,0.44c-0.62-0.2-2.09-1.73-2.09-1.73V32.74c0,0,1.48-1.21,2.09-1.39
			c5.52-1.64,7.51-1.29,9.78,0.25c6.33,4.3,1.08,17.8,6.76,23.1c2.81,2.66,7.94,3.3,17.7-0.09
			C104.9,54.46,105.75,54.84,105.71,55.87"/>
		<path d="M22.05,48.45c-4.78-5.31-13.69-1.32-20.68-1.73c-1.23,0-1.23-1.91-1.23-1.91v-8.36c0,0-0.16-1.66,1.58-1.31
			c8.3,1.78,12.81,0.74,15.27-1.48c3.13-2.79,3.02-7.58,3.13-11.49c0.08-5.69,0.78-9.72,14.93-3.7c1.56,0.65,0.63,2.84,0.86,2.4
			c-2.93,5.99-2.46,10.42-0.27,12.23c4.65,3.76,16.68-0.07,21.8,4.13c1.94,1.61,2.8,2.87,1.92,7.05l-22.54,4.17
			c12.22,4.34,23.41,16.39,18.85,29.4c-6.09,12.69-26.32,16.28-41.51,10.31c-12.79-6.54-18.45-19.84-10.49-28
			C13.23,50.49,22.05,48.45,22.05,48.45 M37.08,78.62c5.59-4.95,7.53-21.33-11.54-19.55l-7.97,2.77c0,0-2.16,1.34-2.13,2.34
			C15.59,69.09,17.75,82.83,37.08,78.62"/>
		<path d="M189.73,40.96v8.68c0,0.83-1.49,1.21-1.49,1.21h-79.83c0,0-2-0.38-2-1.48c0-1,0.12-7.08,0.12-7.98
			c0-0.95,1.38-1.41,1.38-1.41s19.66-0.52,39.3,0c19.67,0.46,40.76,0,40.76,0S189.73,40.05,189.73,40.96"/>
		<path d="M160.41,105.63c-2.96,0-19.81-1.22-21.15-3.9c-2.39-4.88-0.35-7.1,3.87-8.2c9.33-2.42,29.54,2.6,36.55-0.12
			c0.48-0.17,1.19-1.48,1.12-1.89c-1.22-12.65,3.19-19.14-4.24-30h-55.27c-1.89,0-2.45,1.01-2.45,1.01v8.36c0,0,0.38,1.52,1.61,1.48
			c1.23-0.06,37.12,0,37.12,0c4.16,0.32,7.81,0.77,5.04,6.19c-4.72,7.21-31.11,6.06-42.46,6.2c-0.49,0.01-1.12,0.75-1.27,1.59
			c-0.04,0.63,1.08,15.29,1.7,23.57c0,0,1.48,5.24,8.65,6.67c18.82-0.58,38.71,3.26,52.33-0.97
			C187.15,101.73,170.42,105.63,160.41,105.63"/>
		<path d="M176.49,20.05c0,0-1.06-1.22-2.77-1.22h-36.38c-2.91-1.07-6.06-13.71-4.88-17.7c0.1-0.43-0.31-1.13-1.85-1.13h-11.01
			c0,0-1.7,0.29-1.7,1.57v25.16c1.32,3.29,3.89,4.03,5.94,4.38c16.01-0.25,44.23,1.99,53.78-3.11L176.49,20.05z"/>
	</g>
</g>
</svg>
